<?xml version="1.0" standalone="no"?>
<!DOCTYPE svg PUBLIC "-//W3C//DTD SVG 20010904//EN"
 "http://www.w3.org/TR/2001/REC-SVG-20010904/DTD/svg10.dtd">
<svg version="1.0" xmlns="http://www.w3.org/2000/svg"
 width="400.000000pt" height="400.000000pt" viewBox="0 0 400.000000 400.000000"
 preserveAspectRatio="xMidYMid meet">
<metadata>
Created by potrace 1.11, written by Peter Selinger 2001-2013
</metadata>
<g transform="translate(0.000000,400.000000) scale(0.100000,-0.100000)"
fill="#000000" stroke="none">
<path d="M1914 3490 c-50 -11 -117 -49 -160 -90 -36 -34 -84 -113 -98 -162 -5
-15 -50 -17 -601 -17 -394 -1 -602 -4 -615 -11 -11 -6 -26 -23 -34 -38 -12
-23 -12 -32 -1 -59 7 -17 22 -36 34 -42 11 -6 67 -11 125 -11 58 0 106 -2 106
-4 0 -2 -26 -59 -59 -127 -95 -201 -151 -319 -193 -409 -22 -47 -61 -128 -85
-180 -25 -52 -62 -131 -83 -175 -20 -44 -52 -95 -70 -113 -32 -32 -32 -35 -26
-95 10 -97 12 -108 39 -179 39 -102 74 -156 153 -234 143 -142 347 -210 538
-180 212 33 403 171 493 356 41 83 73 204 73 274 0 32 -29 76 -50 76 -4 0 -24
37 -45 83 -21 45 -76 160 -122 256 -46 95 -83 175 -83 176 0 2 -32 69 -71 151
-90 188 -149 315 -149 320 0 2 162 4 360 4 l360 0 24 -53 c14 -29 44 -72 68
-96 43 -43 124 -91 153 -91 8 0 16 -6 17 -12 0 -7 2 -352 3 -765 1 -719 0
-753 -17 -753 -37 0 -145 -44 -208 -85 -136 -89 -218 -214 -245 -375 -16 -92
-3 -144 40 -160 37 -14 998 -13 1029 1 34 16 47 54 41 122 -14 164 -106 319
-245 410 -55 36 -179 87 -213 87 -16 0 -17 40 -15 761 l3 761 55 21 c69 25
158 112 186 179 l19 48 362 0 362 0 -18 -42 c-10 -24 -28 -61 -39 -83 -11 -22
-37 -76 -58 -120 -20 -44 -66 -140 -100 -214 -35 -73 -64 -135 -64 -136 0 -2
-42 -91 -94 -197 -66 -138 -101 -199 -120 -212 -26 -16 -27 -21 -25 -95 3
-149 72 -302 186 -415 246 -244 620 -253 891 -21 98 84 184 245 206 384 14 86
6 135 -25 151 -11 6 -29 30 -39 53 -10 23 -46 101 -80 172 -34 72 -75 157 -90
190 -15 33 -56 119 -90 190 -34 72 -75 157 -90 190 -15 33 -42 89 -59 124 -17
36 -31 68 -31 73 0 4 48 8 108 8 79 0 113 4 129 15 42 30 38 111 -7 135 -15 8
-193 11 -616 11 l-594 0 -29 63 c-59 131 -169 207 -304 211 -40 1 -86 -1 -103
-5z m190 -178 c43 -30 80 -91 84 -139 10 -108 -78 -204 -188 -205 -116 0 -198
88 -188 206 12 146 174 222 292 138z m-1255 -454 c27 -57 60 -128 74 -158 14
-30 45 -98 70 -150 24 -52 56 -120 70 -150 13 -30 46 -100 72 -155 49 -105 67
-147 66 -155 -1 -6 -792 -9 -803 -3 -3 2 0 16 7 31 7 15 59 126 115 247 56
121 126 270 154 330 28 61 67 145 86 187 19 43 36 77 38 78 2 0 25 -46 51
-102z m2414 -33 c30 -66 71 -155 91 -197 60 -129 101 -218 146 -313 23 -49 51
-110 62 -135 11 -25 26 -56 33 -70 l13 -25 -409 0 c-225 -1 -409 0 -409 2 0 2
15 36 34 75 18 40 48 105 66 143 71 152 170 365 212 455 25 52 55 119 68 148
13 29 27 49 31 45 4 -5 32 -62 62 -128z m-1999 -908 c13 -5 13 -14 -4 -63 -79
-228 -331 -374 -560 -324 -61 14 -137 47 -180 78 -87 64 -173 190 -186 274 -6
34 -5 37 22 40 50 5 893 1 908 -5z m2385 4 c20 -1 22 -5 17 -28 -4 -16 -22
-61 -42 -100 -123 -255 -438 -346 -686 -200 -94 55 -191 189 -213 294 -6 29
-4 32 22 35 21 2 783 1 902 -1z m-1503 -814 c103 -44 190 -137 227 -242 l14
-40 -388 0 c-259 0 -389 3 -389 10 0 5 13 38 29 71 49 105 170 202 280 225 61
13 164 2 227 -24z"/>
</g>
</svg>
